<?xml version="1.0" standalone="no"?>
<!DOCTYPE svg PUBLIC "-//W3C//DTD SVG 20010904//EN"
 "http://www.w3.org/TR/2001/REC-SVG-20010904/DTD/svg10.dtd">
<svg version="1.0" xmlns="http://www.w3.org/2000/svg"
 width="512.000000pt" height="512.000000pt" viewBox="0 0 512.000000 512.000000"
 preserveAspectRatio="xMidYMid meet">
<metadata>
Created by potrace 1.11, written by Peter Selinger 2001-2013
</metadata>
<g transform="translate(0.000000,512.000000) scale(0.100000,-0.100000)"
fill="#FFFFFF" stroke="none">
<path d="M2075 4938 c-33 -11 -112 -38 -175 -60 -120 -41 -131 -45 -194 -72
-84 -37 -144 -105 -162 -186 -10 -44 -12 -1706 -2 -1780 14 -107 55 -159 132
-167 32 -4 84 10 243 65 236 82 284 104 334 154 78 79 74 24 74 1018 0 945 0
949 -49 1004 -46 52 -102 59 -201 24z"/>
<path d="M4455 4891 c-236 -83 -273 -100 -317 -143 -46 -44 -65 -83 -76 -149
-10 -68 -8 -862 2 -909 20 -86 75 -140 143 -140 36 0 408 127 480 163 67 34
118 87 140 146 16 42 18 87 17 481 0 239 -3 451 -6 471 -8 55 -38 110 -72 130
-52 32 -105 23 -311 -50z"/>
<path d="M891 4522 c-44 -7 -404 -134 -462 -163 -67 -33 -120 -92 -139 -151
-19 -58 -22 -1754 -4 -1835 27 -123 92 -160 219 -123 120 35 378 130 419 154
64 38 103 83 124 145 18 53 18 102 17 941 -1 943 0 929 -50 988 -26 31 -82 50
-124 44z"/>
<path d="M3200 4450 c-107 -37 -218 -79 -246 -93 -81 -41 -132 -101 -150 -177
-12 -48 -11 -873 1 -925 23 -103 65 -145 142 -145 37 0 348 101 451 146 80 35
127 78 159 142 l28 57 2 443 c2 462 -1 503 -43 568 -20 30 -71 53 -114 52 -19
-1 -123 -31 -230 -68z"/>
<path d="M4484 3140 c-295 -101 -293 -100 -349 -155 -38 -37 -55 -63 -65 -100
-12 -41 -15 -211 -15 -995 l0 -945 28 -57 c46 -94 86 -116 382 -216 161 -55
218 -70 245 -66 43 7 74 26 96 60 42 63 43 84 40 1262 -2 1051 -3 1130 -19
1173 -22 58 -42 77 -100 94 -44 13 -47 12 -243 -55z"/>
<path d="M3205 2691 c-240 -82 -258 -90 -313 -131 -30 -21 -52 -49 -70 -88
l-26 -57 -1 -935 c-1 -1032 -2 -1009 60 -1086 19 -23 58 -53 87 -67 73 -36
424 -157 471 -163 85 -11 135 29 161 127 22 82 18 2307 -4 2359 -31 73 -76
110 -135 110 -16 0 -120 -31 -230 -69z"/>
<path d="M1920 2246 c-239 -85 -279 -105 -324 -158 -59 -69 -60 -82 -60 -628
0 -384 3 -506 13 -542 19 -66 70 -122 144 -157 95 -45 416 -153 470 -158 68
-7 115 25 142 98 19 52 20 79 20 754 0 758 0 758 -54 824 -26 31 -34 35 -87
38 -52 2 -83 -6 -264 -71z"/>
<path d="M835 1865 c-151 -50 -376 -130 -407 -146 -83 -42 -134 -108 -146
-188 -3 -20 -6 -254 -6 -521 0 -529 1 -548 56 -614 44 -54 97 -80 315 -157
223 -79 290 -91 339 -61 29 19 59 67 71 115 11 46 9 1391 -2 1442 -30 131 -97
170 -220 130z"/>
</g>
</svg>
